<?xml version="1.0" standalone="no"?>
<!DOCTYPE svg PUBLIC "-//W3C//DTD SVG 20010904//EN"
 "http://www.w3.org/TR/2001/REC-SVG-20010904/DTD/svg10.dtd">
<svg version="1.0" xmlns="http://www.w3.org/2000/svg"
 width="700.000000pt" height="700.000000pt" viewBox="0 0 700.000000 700.000000"
 preserveAspectRatio="xMidYMid meet">
<metadata>
Created by potrace 1.14, written by Peter Selinger 2001-2017
</metadata>
<g transform="translate(0.000000,700.000000) scale(0.100000,-0.100000)"
fill="#000000" stroke="none">
<path d="M3641 6980 c-147 -53 -231 -168 -244 -335 -7 -85 -21 -113 -91 -187
-61 -64 -111 -158 -126 -238 -12 -64 -11 -219 2 -288 4 -26 10 -58 13 -72 9
-49 45 -152 93 -265 17 -38 29 -71 28 -72 -1 -2 -425 -3 -942 -4 -833 -1 -946
1 -999 15 -91 25 -143 55 -220 128 -90 85 -131 97 -201 61 -60 -31 -86 -123
-50 -178 9 -14 13 -25 9 -26 -154 -16 -240 -63 -308 -164 -56 -85 -74 -189
-49 -290 9 -37 48 -113 71 -140 35 -39 109 -93 143 -103 19 -6 49 -16 67 -21
19 -6 281 -9 660 -8 604 2 629 3 660 22 70 42 84 146 27 203 -42 41 -58 42
-683 42 -350 0 -610 4 -624 9 -37 14 -67 51 -67 83 0 38 33 70 95 93 28 10 64
29 82 42 31 23 60 84 48 103 -11 18 5 11 80 -35 77 -46 162 -79 248 -96 31 -6
826 -9 2099 -9 l2049 0 -18 -31 c-19 -33 -122 -128 -160 -148 -16 -8 -152 -12
-470 -12 -484 -1 -493 -2 -527 -54 -10 -15 -20 -50 -23 -78 -2 -29 -9 -65 -14
-82 -14 -47 -57 -227 -63 -260 -2 -16 -8 -50 -11 -75 -4 -25 -9 -54 -11 -65
-2 -11 -7 -87 -10 -170 -6 -193 -15 -225 -74 -285 -65 -64 -94 -70 -350 -73
-207 -2 -216 -3 -248 -25 -58 -42 -72 -99 -39 -164 38 -74 53 -78 342 -77 179
1 263 5 295 15 47 14 156 100 315 249 12 11 55 49 96 85 41 35 76 67 79 70 3
3 25 23 50 44 25 22 83 74 130 116 145 131 215 190 222 188 5 -2 62 -56 128
-122 l120 -118 -42 -52 c-24 -28 -53 -62 -65 -76 -19 -22 -66 -78 -181 -220
-248 -302 -460 -549 -521 -605 -139 -128 -328 -204 -541 -218 -172 -12 -180
-25 -195 -357 -3 -74 -8 -171 -10 -215 -2 -44 -7 -138 -10 -210 -3 -71 -8
-166 -10 -210 -3 -44 -7 -133 -10 -199 -3 -65 -7 -153 -10 -195 -2 -42 -7
-130 -10 -196 -6 -132 -14 -238 -18 -242 -8 -7 -270 -4 -277 4 -7 7 -26 122
-34 208 -3 27 -15 108 -21 145 -2 9 -6 43 -10 75 -4 33 -9 72 -11 86 -2 15 -6
47 -9 70 -3 24 -7 60 -10 79 -6 47 -25 196 -31 245 -2 22 -6 51 -9 65 -2 14
-7 56 -10 93 -4 37 -8 76 -10 85 -5 27 -16 131 -31 292 -11 116 -12 420 -1
512 6 54 35 215 52 288 2 8 20 67 41 130 l37 115 1 300 c1 265 -6 437 -19 500
-3 11 -7 36 -9 55 -10 69 -27 147 -51 235 -13 50 -27 115 -31 145 -14 121 -47
145 -194 145 -89 0 -109 -3 -132 -20 -87 -65 -64 -206 38 -234 22 -5 32 -17
41 -44 16 -46 61 -274 69 -342 3 -27 7 -61 10 -75 17 -107 22 -325 11 -470
-11 -128 -24 -200 -66 -365 -62 -240 -75 -340 -75 -585 -1 -189 6 -350 19
-445 2 -16 6 -57 10 -90 3 -33 7 -71 9 -85 3 -14 7 -50 10 -80 4 -30 11 -91
16 -135 6 -44 13 -98 16 -120 4 -40 12 -96 19 -145 2 -14 6 -45 9 -70 7 -55
19 -150 30 -228 3 -20 8 -55 11 -77 7 -56 25 -196 30 -225 2 -14 9 -62 15
-107 15 -115 19 -142 25 -193 3 -25 7 -60 9 -78 3 -18 7 -67 11 -110 3 -42 8
-94 11 -114 5 -36 4 -37 -38 -48 -124 -32 -202 -67 -264 -120 -35 -30 -94
-104 -94 -118 0 -6 -7 -23 -16 -39 l-16 -28 -1297 2 c-904 2 -1306 -1 -1329
-8 -19 -6 -49 -25 -68 -41 l-34 -30 0 -94 0 -94 3459 0 3459 0 36 42 c68 79
56 157 -33 199 l-46 23 -1495 1 -1495 2 1 89 c1 95 12 380 19 479 3 33 7 123
10 200 3 77 8 174 10 215 2 41 6 134 10 205 3 72 8 166 10 210 3 44 7 132 10
195 11 248 17 378 20 438 2 35 7 136 11 225 3 89 7 175 8 191 2 23 7 30 26 33
261 35 511 162 691 349 37 38 167 191 289 339 122 149 237 288 255 310 66 79
151 182 185 224 49 61 97 119 135 166 19 22 59 72 90 110 71 89 74 92 112 140
17 22 59 76 94 121 35 45 76 96 90 115 121 156 134 166 217 176 61 6 128 38
163 77 47 52 60 114 60 284 -1 168 -4 191 -36 242 -27 42 -47 59 -99 85 -50
26 -73 56 -81 108 -18 103 -78 203 -156 254 -52 34 -152 61 -212 57 -132 -9
-236 -114 -253 -255 -3 -30 -9 -70 -13 -89 l-7 -35 -667 -1 c-386 0 -667 3
-667 8 0 5 23 77 50 161 70 213 93 330 86 439 -9 138 -65 264 -153 341 -47 41
-72 100 -78 181 -3 36 -14 89 -25 119 -65 174 -274 270 -449 207z m262 -624
c62 -30 127 -89 154 -138 50 -95 10 -319 -101 -560 -45 -99 -107 -141 -201
-140 -102 1 -151 39 -213 165 -146 299 -140 512 20 640 90 72 233 86 341 33z
m1980 -747 c25 -19 57 -98 57 -138 0 -9 -18 -36 -40 -61 -22 -25 -54 -72 -72
-105 -30 -54 -33 -68 -33 -145 0 -83 5 -103 61 -225 2 -6 -44 -71 -102 -145
-58 -74 -118 -150 -133 -169 -39 -50 -162 -205 -166 -210 -2 -2 -51 45 -110
103 l-105 107 27 23 c16 13 42 37 58 52 17 16 66 61 110 99 44 39 95 84 113
102 19 18 63 57 98 88 67 60 109 130 119 200 4 22 8 51 11 65 5 28 9 53 24
163 7 43 13 88 15 100 2 12 6 34 9 50 7 43 17 67 25 67 5 0 20 -9 34 -21z
m-889 -847 c-26 -25 -467 -417 -505 -449 -15 -12 -16 -9 -13 29 7 96 17 164
39 278 3 13 14 57 26 97 l22 73 230 0 231 0 -30 -28z"/>
<path d="M2462 5043 c-45 -22 -66 -57 -68 -112 -2 -57 17 -93 65 -119 92 -50
194 14 193 120 -1 52 -40 104 -90 118 -49 13 -61 13 -100 -7z"/>
</g>
</svg>
